<svg xmlns="http://www.w3.org/2000/svg" width="1501.235" height="1478.148" viewBox="0 0 1501.235 1478.148">
  <g id="Component_6_1" data-name="Component 6 – 1" opacity="0.59">
    <path id="Path_2" data-name="Path 2" d="M537,0c296.577,0,270.747,441.446,537,537s-240.423,537-537,537S0,833.577,0,537,240.423,0,537,0Z" transform="matrix(0.921, -0.391, 0.391, 0.921, 24.039, 448.904)" fill="rgba(252,116,4,0.36)"/>
    <path id="Path_3" data-name="Path 3" d="M537,0c296.577,0,270.747,441.446,537,537s-240.423,537-537,537S0,833.577,0,537,240.423,0,537,0Z" transform="matrix(0.921, -0.391, 0.391, 0.921, 0, 489.526)" fill="rgba(252,116,4,0.36)"/>
    <path id="Path_4" data-name="Path 4" d="M413.711,0c296.577,0,270.747,441.446,537,537s137.717,378.458-261.97,462.892S0,806.835,0,510.258,117.134,0,413.711,0Z" transform="translate(62.52 307.75) rotate(-9)" fill="rgba(252,116,4,0.36)"/>
    <g id="Layer_2" data-name="Layer 2" transform="translate(445.64 545.819)">
      <g id="Слой_1" data-name="Слой 1" transform="translate(0 0)">
        <g id="_2" data-name="2" transform="translate(0)">
          <g id="COMPUTER" transform="translate(203.862 41.003)">
            <path id="Path_278" data-name="Path 278" d="M252.949,508.14H66.722A7.718,7.718,0,0,0,59,515.858V517.9a7.722,7.722,0,0,0,7.722,7.718H252.57" transform="translate(-51.167 -328.849)" fill="#fff" stroke="#3f4d79" stroke-linecap="round" stroke-miterlimit="10" stroke-width="6"/>
            <path id="Path_279" data-name="Path 279" d="M402.054,634.45V549H385.24v85.058" transform="translate(-342.126 -351.942)" fill="#fff"/>
            <path id="Path_280" data-name="Path 280" d="M402.054,554.366V549H385.24v18.649Z" transform="translate(-342.126 -351.942)" fill="#f0e1d4"/>
            <path id="Path_281" data-name="Path 281" d="M402.054,627.927V549H385.24v84.232" transform="translate(-342.126 -351.942)" fill="none" stroke="#3f4d79" stroke-linecap="round" stroke-miterlimit="10" stroke-width="6"/>
            <path id="Path_282" data-name="Path 282" d="M111.02,388.583v4.731L179.386,376.7l68.366,16.614v-4.731l-61.209-19.836V310.19H171.337v58.848Z" transform="translate(-68.589 -216.97)" fill="#fff" stroke="#d8baa3" stroke-miterlimit="10" stroke-width="6"/>
            <path id="Path_283" data-name="Path 283" d="M7.3,228.8H202.044a4.551,4.551,0,0,0,4.348-4.426,7.715,7.715,0,0,1,.087-.77L229.02,101.453a4.975,4.975,0,0,0-.335-3.044A4.348,4.348,0,0,0,224.8,95.8H30.054a4.555,4.555,0,0,0-4.348,4.431,7.487,7.487,0,0,1-.087.765L3.087,223.153a4.979,4.979,0,0,0,.335,3.044A4.348,4.348,0,0,0,7.3,228.8Z" transform="translate(-2.984 -95.8)" fill="#fff" stroke="#d8baa3" stroke-miterlimit="10" stroke-width="6"/>
            <path id="Path_284" data-name="Path 284" d="M20.209,229.611H205.987A4.227,4.227,0,0,0,210,225.194l20.871-113.156a4.23,4.23,0,0,0-4.013-4.418H41.084a4.233,4.233,0,0,0-4.013,4.418L16.2,225.194A4.226,4.226,0,0,0,20.209,229.611Z" transform="translate(-10.48 -102.481)" fill="#fff" stroke="#d8baa3" stroke-miterlimit="10" stroke-width="6"/>
          </g>
          <g id="WOMAN" transform="translate(42.405)">
            <g id="LEGS" transform="translate(20.651 261.023)">
              <g id="RIGHT" transform="translate(81.749 101.699)">
                <g id="FOOT" transform="translate(4.465 144.145)">
                  <path id="Path_285" data-name="Path 285" d="M560.683,1207.013l-5.8-39.8c19.3,2.174,27.976,0,27.976,0l-6.6,30.237c.143,4.9,10.435,24.567,15.879,26.228S572.666,1230.384,560.683,1207.013Z" transform="translate(-552.153 -1167.21)" fill="#ffcfc9"/>
                  <path id="Path_286" data-name="Path 286" d="M577.882,1281.18H530.544s-8.079-15.219-6.818-25.35c1.613-13.044,8.809-14.571,8.809-14.571,6.64,0,4.931,16.558,17.6,22.328,6.313,2.874,11.714,1.07,17.175,2.735C579.517,1270.045,577.882,1281.18,577.882,1281.18Z" transform="translate(-523.592 -1209.062)" fill="#3f4d90"/>
                </g>
                <path id="LEG" d="M547.835,835.7c-4.2,7.7-31.133,61.826-50.264,144.145,0,0-8.97,2.831-27.976,0,0,0-17.31-99.625,1.77-131.457Z" transform="translate(-462.4 -835.7)" fill="#642648"/>
              </g>
              <g id="LEFT" transform="translate(0)">
                <path id="LEG-2" data-name="LEG" d="M325.712,601.81s-27.163,68.031-12.64,93.972c24.2,43.2,162.912,7.727,162.912,7.727S445.7,740.716,480.923,847c0,0,1.27,4.322,28.485.87,0,0,33.359-153.272,33.363-185.935,0-26.741-47.83-35.063-126.039-29.446,0,0-10.331-9.279-18.114-28.7C398.617,603.762,375.833,610.885,325.712,601.81Z" transform="translate(-308.8 -601.81)" fill="#722d54"/>
                <g id="FOOT-2" data-name="FOOT" transform="translate(169.263 245.844)">
                  <path id="Path_287" data-name="Path 287" d="M369.683,1207.013l-5.8-39.8c19.3,2.174,28.411,0,28.411,0l-7.035,30.237c.143,4.9,10.436,24.567,15.879,26.228S381.666,1230.384,369.683,1207.013Z" transform="translate(-361.153 -1167.21)" fill="#ffcfc9"/>
                  <path id="Path_288" data-name="Path 288" d="M386.882,1281.18H339.544s-8.079-15.219-6.818-25.35c1.613-13.044,8.809-14.571,8.809-14.571,6.64,0,4.931,16.558,17.6,22.328,6.314,2.874,11.714,1.07,17.175,2.735C388.517,1270.045,386.882,1281.18,386.882,1281.18Z" transform="translate(-332.592 -1209.062)" fill="#3f4d90"/>
                </g>
              </g>
            </g>
            <g id="BLOUSE" transform="translate(16.124 101.773)">
              <path id="BLOUSE-2" data-name="BLOUSE" d="M350.171,300.2c7.627,31.159,18.262,85.6,18.562,92.981s52.026,12.1,75.049,5.313c0,0,6.361-36.585,7.953-56.4,12.066,16.958,24.376,30.133,32.741,30.133,30.7,0,81.336-17.214,85.176-21.345l-2.231-11.61c-12.692.3-74.975-7.2-74.975-7.2S467.7,269.1,451.513,256.1l-.07-.061c-10.627-9.809-38.216-12.953-44.4-14.475-6.4-1.574-39.016-6-39.016-6C356.963,242.708,343.383,272.454,350.171,300.2Z" transform="translate(-348.35 -235.56)" fill="#f3e7dd"/>
              <g id="PATTERN" transform="translate(0.001 2.852)">
                <path id="Path_289" data-name="Path 289" d="M623.66,272.748a3.574,3.574,0,0,0,6.279,2.331,33.829,33.829,0,0,0-6.035-3.609A3.48,3.48,0,0,0,623.66,272.748Z" transform="translate(-528.346 -258.708)" fill="#fff"/>
                <circle id="Ellipse_50" data-name="Ellipse 50" cx="3.57" cy="3.57" r="3.57" transform="translate(80.561 10.475)" fill="#fff"/>
                <circle id="Ellipse_51" data-name="Ellipse 51" cx="3.57" cy="3.57" r="3.57" transform="translate(65.803 10.475)" fill="#fff"/>
                <circle id="Ellipse_52" data-name="Ellipse 52" cx="3.57" cy="3.57" r="3.57" transform="translate(51.05 10.475)" fill="#fff"/>
                <circle id="Ellipse_53" data-name="Ellipse 53" cx="3.57" cy="3.57" r="3.57" transform="translate(36.292 10.475)" fill="#fff"/>
                <circle id="Ellipse_54" data-name="Ellipse 54" cx="3.57" cy="3.57" r="3.57" transform="translate(21.539 10.475)" fill="#fff"/>
                <path id="Path_290" data-name="Path 290" d="M825.288,270.338h0a3.57,3.57,0,1,0,3.522-4.148,3.478,3.478,0,0,0-1.739.435C826.467,267.846,825.867,269.051,825.288,270.338Z" transform="translate(-818.459 -255.723)" fill="#fff"/>
                <path id="Path_291" data-name="Path 291" d="M604.96,292.788a3.565,3.565,0,0,0,7.031.87,54.461,54.461,0,0,0-3.622-4.418,3.566,3.566,0,0,0-3.409,3.548Z" transform="translate(-502.267 -268.752)" fill="#fff"/>
                <circle id="Ellipse_55" data-name="Ellipse 55" cx="3.57" cy="3.57" r="3.57" transform="translate(87.939 20.471)" fill="#fff"/>
                <circle id="Ellipse_56" data-name="Ellipse 56" cx="3.57" cy="3.57" r="3.57" transform="translate(73.182 20.471)" fill="#fff"/>
                <circle id="Ellipse_57" data-name="Ellipse 57" cx="3.57" cy="3.57" r="3.57" transform="translate(58.429 20.471)" fill="#fff"/>
                <circle id="Ellipse_58" data-name="Ellipse 58" cx="3.57" cy="3.57" r="3.57" transform="translate(43.671 20.471)" fill="#fff"/>
                <circle id="Ellipse_59" data-name="Ellipse 59" cx="3.57" cy="3.57" r="3.57" transform="translate(28.918 20.471)" fill="#fff"/>
                <circle id="Ellipse_60" data-name="Ellipse 60" cx="3.57" cy="3.57" r="3.57" transform="translate(14.16 20.471)" fill="#fff"/>
                <path id="Path_292" data-name="Path 292" d="M842.271,296.657a3.107,3.107,0,0,0,.609.057,3.57,3.57,0,0,0,1.417-6.844C843.519,292.044,842.858,294.314,842.271,296.657Z" transform="translate(-839.907 -269.108)" fill="#fff"/>
                <path id="Path_293" data-name="Path 293" d="M706.77,249.691a3.57,3.57,0,0,0,7.031.87c-3.018-.543-5.4-.957-6.761-1.3l-.23-.057A2.55,2.55,0,0,0,706.77,249.691Z" transform="translate(-648.346 -246.122)" fill="#fff"/>
                <path id="Path_294" data-name="Path 294" d="M740.451,246.7a3.57,3.57,0,1,0,6.522-1.974c-1.626-.265-3.383-.535-5.218-.817a3.566,3.566,0,0,0-1.3,2.792Z" transform="translate(-696.779 -243.132)" fill="#fff"/>
                <circle id="Ellipse_61" data-name="Ellipse 61" cx="3.57" cy="3.57" r="3.57" transform="translate(28.918)" fill="#fff"/>
                <circle id="Ellipse_62" data-name="Ellipse 62" cx="3.57" cy="3.57" r="3.57" transform="translate(14.16)" fill="#fff"/>
                <circle id="Ellipse_63" data-name="Ellipse 63" cx="3.57" cy="3.57" r="3.57" transform="translate(95.318 31.415)" fill="#fff"/>
                <path id="Path_295" data-name="Path 295" d="M588.16,317.94a3.565,3.565,0,0,0,6.957,1.139q-1.418-2.426-2.822-4.661a2.941,2.941,0,0,0-.557-.048A3.574,3.574,0,0,0,588.16,317.94Z" transform="translate(-478.089 -282.955)" fill="#fff"/>
                <circle id="Ellipse_64" data-name="Ellipse 64" cx="3.57" cy="3.57" r="3.57" transform="translate(80.561 31.415)" fill="#fff"/>
                <circle id="Ellipse_65" data-name="Ellipse 65" cx="3.57" cy="3.57" r="3.57" transform="translate(65.803 31.415)" fill="#fff"/>
                <circle id="Ellipse_66" data-name="Ellipse 66" cx="3.57" cy="3.57" r="3.57" transform="translate(51.05 31.415)" fill="#fff"/>
                <circle id="Ellipse_67" data-name="Ellipse 67" cx="3.57" cy="3.57" r="3.57" transform="translate(36.292 31.415)" fill="#fff"/>
                <circle id="Ellipse_68" data-name="Ellipse 68" cx="3.57" cy="3.57" r="3.57" transform="translate(21.539 31.415)" fill="#fff"/>
                <circle id="Ellipse_69" data-name="Ellipse 69" cx="3.57" cy="3.57" r="3.57" transform="translate(6.782 31.415)" fill="#fff"/>
                <circle id="Ellipse_70" data-name="Ellipse 70" cx="3.57" cy="3.57" r="3.57" transform="translate(102.693 41.412)" fill="#fff"/>
                <path id="Path_296" data-name="Path 296" d="M573.62,341.094a3.57,3.57,0,0,0,5.9,2.7c-1.074-2.087-2.174-4.144-3.265-6.148A3.565,3.565,0,0,0,573.62,341.094Z" transform="translate(-456.17 -296.112)" fill="#fff"/>
                <circle id="Ellipse_71" data-name="Ellipse 71" cx="3.57" cy="3.57" r="3.57" transform="translate(87.939 41.412)" fill="#fff"/>
                <circle id="Ellipse_72" data-name="Ellipse 72" cx="3.57" cy="3.57" r="3.57" transform="translate(73.182 41.412)" fill="#fff"/>
                <circle id="Ellipse_73" data-name="Ellipse 73" cx="3.57" cy="3.57" r="3.57" transform="translate(58.429 41.412)" fill="#fff"/>
                <circle id="Ellipse_74" data-name="Ellipse 74" cx="3.57" cy="3.57" r="3.57" transform="translate(43.671 41.412)" fill="#fff"/>
                <circle id="Ellipse_75" data-name="Ellipse 75" cx="3.57" cy="3.57" r="3.57" transform="translate(28.918 41.412)" fill="#fff"/>
                <circle id="Ellipse_76" data-name="Ellipse 76" cx="3.57" cy="3.57" r="3.57" transform="translate(14.16 41.412)" fill="#fff"/>
                <path id="Path_297" data-name="Path 297" d="M842.264,342.9h0a3.57,3.57,0,1,0,.074-4.07h0Q842.247,340.864,842.264,342.9Z" transform="translate(-842.261 -295.944)" fill="#fff"/>
                <circle id="Ellipse_77" data-name="Ellipse 77" cx="3.57" cy="3.57" r="3.57" transform="translate(95.318 51.886)" fill="#fff"/>
                <circle id="Ellipse_78" data-name="Ellipse 78" cx="3.57" cy="3.57" r="3.57" transform="translate(80.561 51.886)" fill="#fff"/>
                <circle id="Ellipse_79" data-name="Ellipse 79" cx="3.57" cy="3.57" r="3.57" transform="translate(65.803 51.886)" fill="#fff"/>
                <circle id="Ellipse_80" data-name="Ellipse 80" cx="3.57" cy="3.57" r="3.57" transform="translate(51.05 51.886)" fill="#fff"/>
                <circle id="Ellipse_81" data-name="Ellipse 81" cx="3.57" cy="3.57" r="3.57" transform="translate(36.292 51.886)" fill="#fff"/>
                <circle id="Ellipse_82" data-name="Ellipse 82" cx="3.57" cy="3.57" r="3.57" transform="translate(21.539 51.886)" fill="#fff"/>
                <circle id="Ellipse_83" data-name="Ellipse 83" cx="3.57" cy="3.57" r="3.57" transform="translate(6.782 51.886)" fill="#fff"/>
                <circle id="Ellipse_84" data-name="Ellipse 84" cx="3.57" cy="3.57" r="3.57" transform="translate(102.693 61.878)" fill="#fff"/>
                <circle id="Ellipse_85" data-name="Ellipse 85" cx="3.57" cy="3.57" r="3.57" transform="translate(87.939 61.878)" fill="#fff"/>
                <circle id="Ellipse_86" data-name="Ellipse 86" cx="3.57" cy="3.57" r="3.57" transform="translate(73.182 61.878)" fill="#fff"/>
                <circle id="Ellipse_87" data-name="Ellipse 87" cx="3.57" cy="3.57" r="3.57" transform="translate(58.429 61.878)" fill="#fff"/>
                <circle id="Ellipse_88" data-name="Ellipse 88" cx="3.57" cy="3.57" r="3.57" transform="translate(43.671 61.878)" fill="#fff"/>
                <circle id="Ellipse_89" data-name="Ellipse 89" cx="3.57" cy="3.57" r="3.57" transform="translate(28.918 61.878)" fill="#fff"/>
                <circle id="Ellipse_90" data-name="Ellipse 90" cx="3.57" cy="3.57" r="3.57" transform="translate(14.16 61.878)" fill="#fff"/>
                <path id="Path_298" data-name="Path 298" d="M842.319,384.6c.539,2.2,1.091,4.513,1.657,6.922a3.569,3.569,0,1,0-1.657-6.922Z" transform="translate(-840.446 -322.552)" fill="#fff"/>
                <circle id="Ellipse_91" data-name="Ellipse 91" cx="3.57" cy="3.57" r="3.57" transform="translate(95.318 72.827)" fill="#fff"/>
                <circle id="Ellipse_92" data-name="Ellipse 92" cx="3.57" cy="3.57" r="3.57" transform="translate(110.072 72.827)" fill="#fff"/>
                <circle id="Ellipse_93" data-name="Ellipse 93" cx="3.57" cy="3.57" r="3.57" transform="translate(80.561 72.827)" fill="#fff"/>
                <circle id="Ellipse_94" data-name="Ellipse 94" cx="3.57" cy="3.57" r="3.57" transform="translate(65.803 72.827)" fill="#fff"/>
                <circle id="Ellipse_95" data-name="Ellipse 95" cx="3.57" cy="3.57" r="3.57" transform="translate(51.05 72.827)" fill="#fff"/>
                <circle id="Ellipse_96" data-name="Ellipse 96" cx="3.57" cy="3.57" r="3.57" transform="translate(36.292 72.827)" fill="#fff"/>
                <circle id="Ellipse_97" data-name="Ellipse 97" cx="3.57" cy="3.57" r="3.57" transform="translate(21.539 72.827)" fill="#fff"/>
                <circle id="Ellipse_98" data-name="Ellipse 98" cx="3.57" cy="3.57" r="3.57" transform="translate(6.782 72.827)" fill="#fff"/>
                <circle id="Ellipse_99" data-name="Ellipse 99" cx="3.57" cy="3.57" r="3.57" transform="translate(102.693 82.823)" fill="#fff"/>
                <circle id="Ellipse_100" data-name="Ellipse 100" cx="3.57" cy="3.57" r="3.57" transform="translate(110.072 51.886)" fill="#fff"/>
                <circle id="Ellipse_101" data-name="Ellipse 101" cx="3.57" cy="3.57" r="3.57" transform="translate(117.45 61.878)" fill="#fff"/>
                <circle id="Ellipse_102" data-name="Ellipse 102" cx="3.57" cy="3.57" r="3.57" transform="translate(124.829 72.827)" fill="#fff"/>
                <circle id="Ellipse_103" data-name="Ellipse 103" cx="3.57" cy="3.57" r="3.57" transform="translate(117.45 82.823)" fill="#fff"/>
                <path id="Path_299" data-name="Path 299" d="M560.74,366.259a3.57,3.57,0,0,0,3.57,3.57,2.915,2.915,0,0,0,.557-.048c-.97-2.031-1.97-4.083-2.983-6.131A3.535,3.535,0,0,0,560.74,366.259Z" transform="translate(-435.915 -310.807)" fill="#fff"/>
                <circle id="Ellipse_104" data-name="Ellipse 104" cx="3.57" cy="3.57" r="3.57" transform="translate(132.204 82.823)" fill="#fff"/>
                <circle id="Ellipse_105" data-name="Ellipse 105" cx="3.57" cy="3.57" r="3.57" transform="translate(87.939 82.823)" fill="#fff"/>
                <circle id="Ellipse_106" data-name="Ellipse 106" cx="3.57" cy="3.57" r="3.57" transform="translate(73.182 82.823)" fill="#fff"/>
                <circle id="Ellipse_107" data-name="Ellipse 107" cx="3.57" cy="3.57" r="3.57" transform="translate(58.429 82.823)" fill="#fff"/>
                <circle id="Ellipse_108" data-name="Ellipse 108" cx="3.57" cy="3.57" r="3.57" transform="translate(43.671 82.823)" fill="#fff"/>
                <circle id="Ellipse_109" data-name="Ellipse 109" cx="3.57" cy="3.57" r="3.57" transform="translate(28.918 82.823)" fill="#fff"/>
                <circle id="Ellipse_110" data-name="Ellipse 110" cx="3.57" cy="3.57" r="3.57" transform="translate(14.16 82.823)" fill="#fff"/>
                <circle id="Ellipse_111" data-name="Ellipse 111" cx="3.57" cy="3.57" r="3.57" transform="translate(95.318 93.294)" fill="#fff"/>
                <circle id="Ellipse_112" data-name="Ellipse 112" cx="3.57" cy="3.57" r="3.57" transform="translate(80.561 93.294)" fill="#fff"/>
                <circle id="Ellipse_113" data-name="Ellipse 113" cx="3.57" cy="3.57" r="3.57" transform="translate(65.803 93.294)" fill="#fff"/>
                <circle id="Ellipse_114" data-name="Ellipse 114" cx="3.57" cy="3.57" r="3.57" transform="translate(51.05 93.294)" fill="#fff"/>
                <circle id="Ellipse_115" data-name="Ellipse 115" cx="3.57" cy="3.57" r="3.57" transform="translate(36.292 93.294)" fill="#fff"/>
                <circle id="Ellipse_116" data-name="Ellipse 116" cx="3.57" cy="3.57" r="3.57" transform="translate(21.539 93.294)" fill="#fff"/>
                <path id="Path_300" data-name="Path 300" d="M825.275,456.941q.726,3.431,1.444,6.87a3.57,3.57,0,1,0-1.444-6.87Z" transform="translate(-816.276 -363.382)" fill="#fff"/>
                <path id="Path_301" data-name="Path 301" d="M607.159,479.664a3.535,3.535,0,0,0-2.452.978h0q2.1,2.935,4.2,5.7a3.57,3.57,0,0,0-1.739-6.683Z" transform="translate(-500.896 -376.374)" fill="#fff"/>
                <circle id="Ellipse_117" data-name="Ellipse 117" cx="3.57" cy="3.57" r="3.57" transform="translate(87.939 103.29)" fill="#fff"/>
                <circle id="Ellipse_118" data-name="Ellipse 118" cx="3.57" cy="3.57" r="3.57" transform="translate(73.182 103.29)" fill="#fff"/>
                <circle id="Ellipse_119" data-name="Ellipse 119" cx="3.57" cy="3.57" r="3.57" transform="translate(58.429 103.29)" fill="#fff"/>
                <circle id="Ellipse_120" data-name="Ellipse 120" cx="3.57" cy="3.57" r="3.57" transform="translate(43.671 103.29)" fill="#fff"/>
                <circle id="Ellipse_121" data-name="Ellipse 121" cx="3.57" cy="3.57" r="3.57" transform="translate(28.918 103.29)" fill="#fff"/>
                <circle id="Ellipse_122" data-name="Ellipse 122" cx="3.57" cy="3.57" r="3.57" transform="translate(14.16 103.29)" fill="#fff"/>
                <circle id="Ellipse_123" data-name="Ellipse 123" cx="3.57" cy="3.57" r="3.57" transform="translate(94.366 114.239)" fill="#fff"/>
                <path id="Path_302" data-name="Path 302" d="M587.737,505.38c1.539,1.9,3.07,3.692,4.574,5.366a3.57,3.57,0,0,0-2.731-5.9A3.479,3.479,0,0,0,587.737,505.38Z" transform="translate(-475.961 -390.611)" fill="#fff"/>
                <circle id="Ellipse_124" data-name="Ellipse 124" cx="3.57" cy="3.57" r="3.57" transform="translate(80.561 114.239)" fill="#fff"/>
                <circle id="Ellipse_125" data-name="Ellipse 125" cx="3.57" cy="3.57" r="3.57" transform="translate(65.803 114.239)" fill="#fff"/>
                <circle id="Ellipse_126" data-name="Ellipse 126" cx="3.57" cy="3.57" r="3.57" transform="translate(51.05 114.239)" fill="#fff"/>
                <circle id="Ellipse_127" data-name="Ellipse 127" cx="3.57" cy="3.57" r="3.57" transform="translate(36.292 114.239)" fill="#fff"/>
                <circle id="Ellipse_128" data-name="Ellipse 128" cx="3.57" cy="3.57" r="3.57" transform="translate(21.539 114.239)" fill="#fff"/>
                <circle id="Ellipse_129" data-name="Ellipse 129" cx="3.57" cy="3.57" r="3.57" transform="translate(110.072 93.294)" fill="#fff"/>
                <circle id="Ellipse_130" data-name="Ellipse 130" cx="3.57" cy="3.57" r="3.57" transform="translate(117.45 103.29)" fill="#fff"/>
                <circle id="Ellipse_131" data-name="Ellipse 131" cx="3.57" cy="3.57" r="3.57" transform="translate(124.829 114.239)" fill="#fff"/>
                <circle id="Ellipse_132" data-name="Ellipse 132" cx="3.57" cy="3.57" r="3.57" transform="translate(132.204 124.235)" fill="#fff"/>
                <circle id="Ellipse_133" data-name="Ellipse 133" cx="3.57" cy="3.57" r="3.57" transform="translate(124.829 93.294)" fill="#fff"/>
                <circle id="Ellipse_134" data-name="Ellipse 134" cx="3.57" cy="3.57" r="3.57" transform="translate(132.204 103.29)" fill="#fff"/>
                <circle id="Ellipse_135" data-name="Ellipse 135" cx="3.57" cy="3.57" r="3.57" transform="translate(139.582 114.239)" fill="#fff"/>
                <circle id="Ellipse_136" data-name="Ellipse 136" cx="3.57" cy="3.57" r="3.57" transform="translate(146.961 124.235)" fill="#fff"/>
                <circle id="Ellipse_137" data-name="Ellipse 137" cx="3.57" cy="3.57" r="3.57" transform="translate(139.582 93.294)" fill="#fff"/>
                <circle id="Ellipse_138" data-name="Ellipse 138" cx="3.57" cy="3.57" r="3.57" transform="translate(146.961 103.29)" fill="#fff"/>
                <circle id="Ellipse_139" data-name="Ellipse 139" cx="3.57" cy="3.57" r="3.57" transform="translate(154.34 114.239)" fill="#fff"/>
                <path id="Path_303" data-name="Path 303" d="M468.94,531.34a3.557,3.557,0,0,0,1.609,2.983c1.639-.309,3.287-.644,4.926-.991a3.57,3.57,0,1,0-6.522-1.991Z" transform="translate(-307.226 -403.557)" fill="#fff"/>
                <path id="Path_304" data-name="Path 304" d="M485.94,462.381a3.57,3.57,0,1,0,7.14,0,3.478,3.478,0,0,0-.213-1.209l-6.335-.722A3.535,3.535,0,0,0,485.94,462.381Z" transform="translate(-331.604 -365.517)" fill="#fff"/>
                <circle id="Ellipse_140" data-name="Ellipse 140" cx="3.57" cy="3.57" r="3.57" transform="translate(161.719 103.29)" fill="#fff"/>
                <circle id="Ellipse_141" data-name="Ellipse 141" cx="3.57" cy="3.57" r="3.57" transform="translate(169.093 114.239)" fill="#fff"/>
                <path id="Path_305" data-name="Path 305" d="M435.912,531.368a1.207,1.207,0,0,0,0,.126c2.278-.548,4.539-1.122,6.757-1.713a3.566,3.566,0,0,0-6.757,1.587Z" transform="translate(-259.44 -403.585)" fill="#fff"/>
                <path id="Path_306" data-name="Path 306" d="M452.07,464.449a3.57,3.57,0,0,0,7.109.435l-7.092-.774A2.862,2.862,0,0,0,452.07,464.449Z" transform="translate(-282.977 -367.586)" fill="#fff"/>
                <circle id="Ellipse_142" data-name="Ellipse 142" cx="3.57" cy="3.57" r="3.57" transform="translate(176.472 103.29)" fill="#fff"/>
                <circle id="Ellipse_143" data-name="Ellipse 143" cx="3.57" cy="3.57" r="3.57" transform="translate(183.851 114.239)" fill="#fff"/>
                <path id="Path_307" data-name="Path 307" d="M419.36,467.82a3.565,3.565,0,0,0,6.34.644C423.612,468.255,421.508,468.042,419.36,467.82Z" transform="translate(-235.275 -369.683)" fill="#fff"/>
                <circle id="Ellipse_144" data-name="Ellipse 144" cx="3.57" cy="3.57" r="3.57" transform="translate(191.229 103.29)" fill="#fff"/>
                <path id="Path_308" data-name="Path 308" d="M384.13,508.43a3.561,3.561,0,0,0,2.1,3.248c1.608-.526,3.152-1.048,4.617-1.557a3.57,3.57,0,1,0-6.718-1.691Z" transform="translate(-185.526 -390.622)" fill="#fff"/>
                <circle id="Ellipse_145" data-name="Ellipse 145" cx="3.57" cy="3.57" r="3.57" transform="translate(205.983 103.29)" fill="#fff"/>
                <circle id="Ellipse_146" data-name="Ellipse 146" cx="3.57" cy="3.57" r="3.57" transform="translate(87.939 124.235)" fill="#fff"/>
                <circle id="Ellipse_147" data-name="Ellipse 147" cx="3.57" cy="3.57" r="3.57" transform="translate(73.182 124.235)" fill="#fff"/>
                <circle id="Ellipse_148" data-name="Ellipse 148" cx="3.57" cy="3.57" r="3.57" transform="translate(58.429 124.235)" fill="#fff"/>
                <circle id="Ellipse_149" data-name="Ellipse 149" cx="3.57" cy="3.57" r="3.57" transform="translate(43.671 124.235)" fill="#fff"/>
                <circle id="Ellipse_150" data-name="Ellipse 150" cx="3.57" cy="3.57" r="3.57" transform="translate(28.918 124.235)" fill="#fff"/>
                <path id="Path_309" data-name="Path 309" d="M808.282,528.7c.4,2.087.787,4.113,1.152,6.061a3.451,3.451,0,0,0,1.183.209,3.574,3.574,0,1,0-2.335-6.27Z" transform="translate(-792.887 -403.594)" fill="#fff"/>
                <path id="Path_310" data-name="Path 310" d="M628.48,555.49a3.561,3.561,0,0,0,3.109,3.535c.352-2.252.713-4.618,1.074-7.048a3.169,3.169,0,0,0-.613-.057A3.574,3.574,0,0,0,628.48,555.49Z" transform="translate(-533.166 -417.215)" fill="#fff"/>
                <circle id="Ellipse_151" data-name="Ellipse 151" cx="3.57" cy="3.57" r="3.57" transform="translate(80.561 134.705)" fill="#fff"/>
                <circle id="Ellipse_152" data-name="Ellipse 152" cx="3.57" cy="3.57" r="3.57" transform="translate(65.803 134.705)" fill="#fff"/>
                <circle id="Ellipse_153" data-name="Ellipse 153" cx="3.57" cy="3.57" r="3.57" transform="translate(51.05 134.705)" fill="#fff"/>
                <circle id="Ellipse_154" data-name="Ellipse 154" cx="3.57" cy="3.57" r="3.57" transform="translate(36.292 134.705)" fill="#fff"/>
                <circle id="Ellipse_155" data-name="Ellipse 155" cx="3.57" cy="3.57" r="3.57" transform="translate(21.539 134.705)" fill="#fff"/>
                <circle id="Ellipse_156" data-name="Ellipse 156" cx="3.57" cy="3.57" r="3.57" transform="translate(87.939 144.702)" fill="#fff"/>
                <circle id="Ellipse_157" data-name="Ellipse 157" cx="3.57" cy="3.57" r="3.57" transform="translate(73.182 144.702)" fill="#fff"/>
                <circle id="Ellipse_158" data-name="Ellipse 158" cx="3.57" cy="3.57" r="3.57" transform="translate(58.429 144.702)" fill="#fff"/>
                <circle id="Ellipse_159" data-name="Ellipse 159" cx="3.57" cy="3.57" r="3.57" transform="translate(43.671 144.702)" fill="#fff"/>
                <circle id="Ellipse_160" data-name="Ellipse 160" cx="3.57" cy="3.57" r="3.57" transform="translate(28.918 144.702)" fill="#fff"/>
                <path id="Path_311" data-name="Path 311" d="M808.363,575.46c.4,2.4.726,4.457.952,6.087a3.57,3.57,0,0,0-.952-6.087Z" transform="translate(-789.346 -430.519)" fill="#fff"/>
                <path id="Path_312" data-name="Path 312" d="M655.594,603.653a3.565,3.565,0,0,0,2.109,3.257h0c1.265-.135,2.5-.3,3.7-.474a3.57,3.57,0,1,0-5.809-2.783Z" transform="translate(-575.02 -444.437)" fill="#fff"/>
                <circle id="Ellipse_161" data-name="Ellipse 161" cx="3.57" cy="3.57" r="3.57" transform="translate(65.803 155.65)" fill="#fff"/>
                <circle id="Ellipse_162" data-name="Ellipse 162" cx="3.57" cy="3.57" r="3.57" transform="translate(51.05 155.65)" fill="#fff"/>
                <path id="Path_313" data-name="Path 313" d="M757.434,603.656a3.579,3.579,0,0,0,.665,2.079c1.635.261,3.348.5,5.126.717h0a3.57,3.57,0,1,0-5.8-2.8Z" transform="translate(-721.142 -444.441)" fill="#fff"/>
                <path id="Path_314" data-name="Path 314" d="M791.406,601.525a24.859,24.859,0,0,0,6.418,2.487,3.375,3.375,0,0,0,0-.365,3.565,3.565,0,0,0-6.435-2.122Z" transform="translate(-769.167 -444.432)" fill="#fff"/>
              </g>
              <path id="SHADOW" d="M648.289,422.456c-12.718-16.9-20.306-33.424-27.689-48.016" transform="translate(-545.365 -314.053)" fill="none" stroke="#d8baa3" stroke-miterlimit="10" stroke-width="4"/>
            </g>
            <path id="HAND" d="M285.772,470.45c-4.226-.909-19.093-.831-26.7,1.235l1.439,12.61s7.157,3.5,11.883,1.561,8.292-5.77,11.657-4.722,7.5,3.7,9.527,3.218a21.375,21.375,0,0,0,6.792-2.813C299.564,480.06,290.981,472.064,285.772,470.45Z" transform="translate(-24.123 -266.231)" fill="#ffcfc9"/>
            <g id="HEAD" transform="translate(0)">
              <path id="NECK" d="M753.431,166.794c-1.178,4.722-5.9,25.189-5.9,28.337s-32.485-.5-38.781-6A74.474,74.474,0,0,0,724.7,153.41Z" transform="translate(-672.713 -87.357)" fill="#ffcfc9"/>
              <path id="HEAD-2" data-name="HEAD" d="M668.15,104.135s9.909,20.671,30.5,19.023a4.174,4.174,0,0,0,3.326-2.139c2.826-5.131,10.322-19.567,10.049-28.137-.339-10.527-4.818-30.046-4.818-30.046s-25.071-5.192-38.99,18.053C660.419,93.935,668.15,104.135,668.15,104.135Z" transform="translate(-612.172 -35.886)" fill="#ffcfc9"/>
              <g id="GLASSES" transform="translate(74.075 43.538)">
                <line id="Line_46" data-name="Line 46" x2="36.416" transform="translate(0 6.04)" fill="none" stroke="#d8baa3" stroke-miterlimit="10" stroke-width="4"/>
                <ellipse id="Ellipse_163" data-name="Ellipse 163" cx="3.57" cy="9.896" rx="3.57" ry="9.896" transform="translate(28.989)" fill="none" stroke="#d8baa3" stroke-miterlimit="10" stroke-width="4"/>
              </g>
              <g id="HAIR" transform="translate(0)">
                <path id="Path_315" data-name="Path 315" d="M657.611,89.785s28.893,8.353,67.8,10.9c0,0,13.544-14.027-2.061-31.337-8.922-9.9,2.013-22.441,2.013-22.441,12.5-3.913,27.354-4.348,27.354-4.348,4.961-7.292,5.1-17.645-8.7-27.867C729.734,4.113,701.736-6.448,685.213,10.3c-9.466,9.566-3.044,28.741-15.158,34.559C631.926,63.122,657.611,89.785,657.611,89.785Z" transform="translate(-649.149 -1.521)" fill="#3f4d90"/>
                <path id="Path_316" data-name="Path 316" d="M761.007,14.648c-14.3-10.575-42.286-21.136-58.809-4.392-9.466,9.566-3.992,32.072-16.088,37.89" transform="translate(-670.443 -1.499)" fill="none" stroke="#3f4d90" stroke-miterlimit="10" stroke-width="3"/>
                <path id="Path_317" data-name="Path 317" d="M655.564,60.223c4.961-7.292,2.883-19.788-12.527-27.393" transform="translate(-548.67 -19.207)" fill="none" stroke="#3f4d90" stroke-miterlimit="10" stroke-width="3"/>
                <path id="Path_318" data-name="Path 318" d="M704.632,157.191s11.644-14.888-5.07-31.133c-9.566-9.288-1.37-24.428-1.37-24.428" transform="translate(-621.847 -58.092)" fill="none" stroke="#3f4d90" stroke-miterlimit="10" stroke-width="3"/>
              </g>
            </g>
          </g>
          <g id="CHAIR" transform="translate(0 185.053)">
            <path id="Path_319" data-name="Path 319" d="M460.251,434.069c2.309,8.7,33.22,64.787,36.285,143.989a42.612,42.612,0,0,0,42.56,40.99H678.553c4.744,0,7.97,1.9,10,5a1.47,1.47,0,0,0,2.678-.831V616c0-9.566-7.779-19.08-17.362-19.054l-42.577.035c-19.062.057-30.346-13.279-31.067-32.328-2.661-70.353-25.289-114.882-35.542-129.3a19.684,19.684,0,0,0-16.045-8.261H463.786C460.2,427.094,459.329,430.595,460.251,434.069Z" transform="translate(-459.91 -427.09)" fill="#fff" stroke="#d8baa3" stroke-linecap="round" stroke-miterlimit="10" stroke-width="6"/>
            <path id="Path_320" data-name="Path 320" d="M459.9,441.94h82.954a18.7,18.7,0,0,1,15.24,7.827c9.775,13.749,30.615,69.688,33.168,133.009a29.811,29.811,0,0,0,29.8,28.585h52.752a15.879,15.879,0,0,1,15.879,15.879" transform="translate(-458.368 -435.483)" fill="none" stroke="#d8baa3" stroke-linecap="round" stroke-miterlimit="10" stroke-width="6"/>
            <rect id="Rectangle_25" data-name="Rectangle 25" width="15.218" height="140.062" transform="translate(129.167 220.485)" fill="#f0e1d4" stroke="#d8baa3" stroke-linecap="round" stroke-miterlimit="10" stroke-width="6"/>
            <path id="Path_321" data-name="Path 321" d="M667.648,1271.548c0-8.2-6.131-14.858-13.692-14.858H616.127c-7.561,0-13.7,6.653-13.7,14.858" transform="translate(-498.295 -895.969)" fill="none" stroke="#d8baa3" stroke-linecap="round" stroke-miterlimit="10" stroke-width="6"/>
            <circle id="Ellipse_164" data-name="Ellipse 164" cx="10.67" cy="10.67" r="10.67" transform="translate(94.33 371.648)" fill="#fff" stroke="#d8baa3" stroke-linecap="round" stroke-miterlimit="10" stroke-width="6"/>
            <circle id="Ellipse_165" data-name="Ellipse 165" cx="10.67" cy="10.67" r="10.67" transform="translate(157.378 371.648)" fill="#fff" stroke="#d8baa3" stroke-linecap="round" stroke-miterlimit="10" stroke-width="6"/>
            <path id="Path_322" data-name="Path 322" d="M672.337,869.14H639v20.906a12,12,0,0,0,12,12h9.335a12,12,0,0,0,12.005-12Z" transform="translate(-518.885 -676.931)" fill="#fff" stroke="#d8baa3" stroke-linecap="round" stroke-miterlimit="10" stroke-width="6"/>
            <path id="Path_323" data-name="Path 323" d="M663.63,1271.464a14.784,14.784,0,0,0-14.784-14.784h-98.7a14.784,14.784,0,0,0-14.784,14.784" transform="translate(-465.114 -895.963)" fill="none" stroke="#d8baa3" stroke-linecap="round" stroke-miterlimit="10" stroke-width="6"/>
            <circle id="Ellipse_166" data-name="Ellipse 166" cx="10.67" cy="10.67" r="10.67" transform="translate(190.859 371.648)" fill="#fff" stroke="#d8baa3" stroke-linecap="round" stroke-miterlimit="10" stroke-width="6"/>
            <circle id="Ellipse_167" data-name="Ellipse 167" cx="10.67" cy="10.67" r="10.67" transform="translate(57.806 371.648)" fill="#fff" stroke="#d8baa3" stroke-linecap="round" stroke-miterlimit="10" stroke-width="6"/>
          </g>
        </g>
      </g>
    </g>
    <g id="Layer_2-2" data-name="Layer 2" transform="translate(968.64 563.164)">
      <g id="Слой_1-2" data-name="Слой 1" transform="translate(0 -0.013)">
        <g id="_4" data-name="4">
          <g id="EQUIPMENT" transform="translate(0 9.786)">
            <g id="MONITOR" transform="translate(20.14)">
              <path id="Path_198" data-name="Path 198" d="M255.105,354.021H187.74l14.91-39.4h67.366Z" transform="translate(-137.898 -207.123)" fill="#fff" stroke="#aee5f2" stroke-miterlimit="10" stroke-width="6"/>
              <path id="Path_199" data-name="Path 199" d="M279.288,314.62l-14.91,39.4H200.74l14.91-39.4Z" transform="translate(-146.052 -207.123)" fill="#fff" stroke="#aee5f2" stroke-miterlimit="10" stroke-width="6"/>
              <rect id="Rectangle_18" data-name="Rectangle 18" width="187.473" height="111.258" rx="11.53" fill="#fff" stroke="#aee5f2" stroke-miterlimit="10" stroke-width="6"/>
              <path id="Path_200" data-name="Path 200" d="M294.79,314.62l-4.179,11.589L227.6,331.055l6.154-16.435Z" transform="translate(-162.9 -207.123)" fill="#dcf5ff"/>
              <rect id="Rectangle_19" data-name="Rectangle 19" width="187.473" height="111.258" rx="11.53" transform="translate(4.488)" fill="#fff" stroke="#aee5f2" stroke-miterlimit="10" stroke-width="6"/>
              <rect id="Rectangle_20" data-name="Rectangle 20" width="170.978" height="74.966" transform="translate(13.788 8.741)" fill="#3f4d79"/>
              <rect id="Rectangle_21" data-name="Rectangle 21" width="170.978" height="74.966" transform="translate(13.788 8.741)" fill="none" stroke="#aee5f2" stroke-miterlimit="10" stroke-width="3"/>
              <line id="Line_26" data-name="Line 26" y2="74.962" transform="translate(27.424 8.741)" fill="none" stroke="#aee5f2" stroke-miterlimit="10" stroke-width="1.5"/>
              <line id="Line_27" data-name="Line 27" y2="74.962" transform="translate(41.749 8.741)" fill="none" stroke="#aee5f2" stroke-miterlimit="10" stroke-width="1.5"/>
              <line id="Line_28" data-name="Line 28" y2="74.962" transform="translate(56.078 8.741)" fill="none" stroke="#aee5f2" stroke-miterlimit="10" stroke-width="1.5"/>
              <line id="Line_29" data-name="Line 29" y2="74.962" transform="translate(70.403 8.741)" fill="none" stroke="#aee5f2" stroke-miterlimit="10" stroke-width="1.5"/>
              <line id="Line_30" data-name="Line 30" y2="74.962" transform="translate(84.732 8.741)" fill="none" stroke="#aee5f2" stroke-miterlimit="10" stroke-width="1.5"/>
              <line id="Line_31" data-name="Line 31" y2="74.962" transform="translate(99.058 8.741)" fill="none" stroke="#aee5f2" stroke-miterlimit="10" stroke-width="1.5"/>
              <line id="Line_32" data-name="Line 32" y2="74.962" transform="translate(113.387 8.741)" fill="none" stroke="#aee5f2" stroke-miterlimit="10" stroke-width="1.5"/>
              <line id="Line_33" data-name="Line 33" y2="74.962" transform="translate(127.712 8.741)" fill="none" stroke="#aee5f2" stroke-miterlimit="10" stroke-width="1.5"/>
              <line id="Line_34" data-name="Line 34" y2="74.962" transform="translate(142.037 8.741)" fill="none" stroke="#aee5f2" stroke-miterlimit="10" stroke-width="1.5"/>
              <line id="Line_35" data-name="Line 35" y2="74.962" transform="translate(156.366 8.741)" fill="none" stroke="#aee5f2" stroke-miterlimit="10" stroke-width="1.5"/>
              <line id="Line_36" data-name="Line 36" y2="74.962" transform="translate(170.691 8.741)" fill="none" stroke="#aee5f2" stroke-miterlimit="10" stroke-width="1.5"/>
              <path id="Path_201" data-name="Path 201" d="M261.608,130.108c-6.054,0-5.193-9.692-13.419-9.692-8.38,0-15.745,26.772-26.7,26.772-11.753,0-16.5-24.293-26.313-24.293-13.255,0-13.151,18.739-27.871,18.739s-21.911-34.984-34.294-34.984c-11.257,0-14.4,32.43-28.636,32.43-7.571,0-8.868-8.708-13.99-8.708" transform="translate(-76.83 -76.676)" fill="#dcf5ff"/>
              <path id="Path_202" data-name="Path 202" d="M91.45,150.968c42.163,0,43.8-9.345,61.8-9.345,15.857,0,21.62,17.147,34.294,17.147,14.448,0,21.7-19.32,31.487-19.32s14.676,19.738,22.921,19.738,11.071-8.469,20.107-8.469Z" transform="translate(-77.501 -97.25)" fill="#ffb000"/>
              <path id="Path_203" data-name="Path 203" d="M90.24,140.958c49.831,0,49.383-13.792,64.011-13.792,14.415,0,21.5,26.049,34.182,26.049,14.448,0,18.467-29,29.854-29,11.735,0,15.943,29.448,25.046,29.448,8.2,0,8.946-12.063,17.982-12.063" transform="translate(-76.742 -87.691)" fill="none" stroke="#fff" stroke-miterlimit="10" stroke-width="2"/>
              <line id="Line_37" data-name="Line 37" x2="169.841" transform="translate(14.746 89.962)" fill="none" stroke="#3cbfd4" stroke-linecap="round" stroke-miterlimit="10" stroke-width="3"/>
              <path id="Path_204" data-name="Path 204" d="M90.518,263.94H150.2v2.71H90.518a1.238,1.238,0,0,1-1.238-1.238v-.235A1.238,1.238,0,0,1,90.518,263.94Z" transform="translate(-76.14 -175.335)" fill="#ffb000"/>
              <circle id="Ellipse_28" data-name="Ellipse 28" cx="2.244" cy="2.244" r="2.244" transform="translate(74.467 87.852)" fill="#fff" stroke="#ffb000" stroke-miterlimit="10" stroke-width="4"/>
              <rect id="Rectangle_22" data-name="Rectangle 22" width="1.912" height="6.93" rx="0.956" transform="translate(96.299 96.717)" fill="#ffb000"/>
              <rect id="Rectangle_23" data-name="Rectangle 23" width="1.912" height="6.93" rx="0.956" transform="translate(99.993 96.717)" fill="#ffb000"/>
              <path id="Path_205" data-name="Path 205" d="M339,292.028v-5.591a.63.63,0,0,1,.969-.533l4.425,2.792a.634.634,0,0,1,0,1.07l-4.425,2.8a.634.634,0,0,1-.969-.533Z" transform="translate(-232.774 -189.049)" fill="#ffb000"/>
              <path id="Path_206" data-name="Path 206" d="M281.991,288.686v1.864a2.8,2.8,0,0,1-2.8,2.8h-1.909a3.019,3.019,0,0,1-3.019-3.019h0a3.023,3.023,0,0,1,3.019-3.023" transform="translate(-192.167 -189.993)" fill="none" stroke="#ffb000" stroke-linecap="round" stroke-linejoin="round" stroke-width="3"/>
              <path id="Path_207" data-name="Path 207" d="M289.37,289.409l2.1-2.1,2.1,2.1" transform="translate(-201.644 -189.993)" fill="none" stroke="#ffb000" stroke-linecap="round" stroke-linejoin="round" stroke-width="3"/>
            </g>
            <path id="TABLE" d="M0,536.88H230.546v11.328H.183" transform="translate(0 -346.533)" fill="none" stroke="#ffb000" stroke-miterlimit="10" stroke-width="5"/>
            <g id="EQUALIZER" transform="translate(25.463 141.18)">
              <path id="Path_208" data-name="Path 208" d="M263.894,449.59v5.375H132.906V449.59l-64.6-39.74H199.3l59.183,36.411Z" transform="translate(-68.31 -408.035)" fill="#fff" stroke="#aee5f2" stroke-linejoin="round" stroke-width="6"/>
              <path id="Path_209" data-name="Path 209" d="M132.906,449.59v5.375H68.31V409.85Z" transform="translate(-68.31 -408.035)" fill="#fff" stroke="#aee5f2" stroke-linejoin="round" stroke-width="6"/>
              <line id="Line_38" data-name="Line 38" x2="22.023" y2="13.546" transform="translate(49.324 23.521)" fill="none" stroke="#3cbfd4" stroke-linecap="round" stroke-linejoin="round" stroke-width="4"/>
              <path id="Path_210" data-name="Path 210" d="M240.984,487.574v1.021H237.89v-1.021l-2.005-2.121-2.945-3.113h3.1Z" transform="translate(-171.572 -453.503)" fill="#ffb000"/>
              <path id="Path_211" data-name="Path 211" d="M240.984,487.577V488.6H237.89l-2.005-1.234-2.945-1.812V482.34l2.945,3.113,2.005,2.121v0Z" transform="translate(-171.572 -453.503)" fill="#dc9600"/>
              <path id="Path_212" data-name="Path 212" d="M181.966,444.535c0,.585-1.282,1.059-2.863,1.059s-2.863-.473-2.863-1.059l.746-5.465h4.208Z" transform="translate(-136.008 -426.363)" fill="#fff" stroke="#3cbfd4" stroke-linejoin="round" stroke-width="4"/>
              <ellipse id="Ellipse_29" data-name="Ellipse 29" cx="2.106" cy="1.141" rx="2.106" ry="1.141" transform="translate(40.985 11.6)" fill="#ffb000" stroke="#3cbfd4" stroke-linejoin="round" stroke-width="4"/>
              <path id="Path_213" data-name="Path 213" d="M155.116,429.375c0,.585-1.282,1.059-2.863,1.059s-2.863-.473-2.863-1.059l.746-5.465h4.212Z" transform="translate(-119.166 -416.854)" fill="#fff" stroke="#3cbfd4" stroke-linejoin="round" stroke-width="4"/>
              <ellipse id="Ellipse_30" data-name="Ellipse 30" cx="2.106" cy="1.141" rx="2.106" ry="1.141" transform="translate(30.976 5.949)" fill="#ffb000" stroke="#3cbfd4" stroke-linejoin="round" stroke-width="4"/>
              <path id="Path_214" data-name="Path 214" d="M130.446,413.415c0,.585-1.282,1.059-2.863,1.059s-2.863-.473-2.863-1.059l.746-5.465h4.2Z" transform="translate(-103.693 -406.843)" fill="#fff" stroke="#3cbfd4" stroke-linejoin="round" stroke-width="4"/>
              <ellipse id="Ellipse_31" data-name="Ellipse 31" cx="2.106" cy="1.141" rx="2.106" ry="1.141" transform="translate(21.78)" fill="#ffb000" stroke="#3cbfd4" stroke-linejoin="round" stroke-width="4"/>
              <path id="Path_215" data-name="Path 215" d="M239.292,444.535c0,.585-1.279,1.059-2.859,1.059s-2.863-.473-2.863-1.059l.746-5.465h4.208Z" transform="translate(-171.967 -426.363)" fill="#fff" stroke="#3cbfd4" stroke-linejoin="round" stroke-width="4"/>
              <ellipse id="Ellipse_32" data-name="Ellipse 32" cx="2.106" cy="1.141" rx="2.106" ry="1.141" transform="translate(62.356 11.6)" fill="#ffb000" stroke="#3cbfd4" stroke-linejoin="round" stroke-width="4"/>
              <path id="Path_216" data-name="Path 216" d="M212.446,429.375c0,.585-1.282,1.059-2.863,1.059s-2.863-.473-2.863-1.059l.746-5.465h4.2Z" transform="translate(-155.126 -416.854)" fill="#fff" stroke="#3cbfd4" stroke-linejoin="round" stroke-width="4"/>
              <ellipse id="Ellipse_33" data-name="Ellipse 33" cx="2.106" cy="1.141" rx="2.106" ry="1.141" transform="translate(52.347 5.949)" fill="#ffb000" stroke="#3cbfd4" stroke-linejoin="round" stroke-width="4"/>
              <path id="Path_217" data-name="Path 217" d="M187.766,413.415c0,.585-1.279,1.059-2.863,1.059s-2.863-.473-2.863-1.059l.746-5.465h4.208Z" transform="translate(-139.646 -406.843)" fill="#fff" stroke="#3cbfd4" stroke-linejoin="round" stroke-width="4"/>
              <ellipse id="Ellipse_34" data-name="Ellipse 34" cx="2.106" cy="1.141" rx="2.106" ry="1.141" transform="translate(43.151)" fill="#ffb000" stroke="#3cbfd4" stroke-linejoin="round" stroke-width="4"/>
              <path id="Path_218" data-name="Path 218" d="M291.536,444.535c0,.585-1.282,1.059-2.863,1.059s-2.863-.473-2.863-1.059l.746-5.465h4.208Z" transform="translate(-204.734 -426.363)" fill="#fff" stroke="#3cbfd4" stroke-linejoin="round" stroke-width="4"/>
              <ellipse id="Ellipse_35" data-name="Ellipse 35" cx="2.106" cy="1.141" rx="2.106" ry="1.141" transform="translate(81.832 11.6)" fill="#ffb000" stroke="#3cbfd4" stroke-linejoin="round" stroke-width="4"/>
              <path id="Path_219" data-name="Path 219" d="M264.686,429.375c0,.585-1.282,1.059-2.863,1.059s-2.863-.473-2.863-1.059l.746-5.465h4.208Z" transform="translate(-187.893 -416.854)" fill="#fff" stroke="#3cbfd4" stroke-linejoin="round" stroke-width="4"/>
              <ellipse id="Ellipse_36" data-name="Ellipse 36" cx="2.106" cy="1.141" rx="2.106" ry="1.141" transform="translate(71.824 5.949)" fill="#ffb000" stroke="#3cbfd4" stroke-linejoin="round" stroke-width="4"/>
              <path id="Path_220" data-name="Path 220" d="M240.016,413.415c0,.585-1.282,1.059-2.863,1.059s-2.863-.473-2.863-1.059l.746-5.465h4.208Z" transform="translate(-172.419 -406.843)" fill="#fff" stroke="#3cbfd4" stroke-linejoin="round" stroke-width="4"/>
              <ellipse id="Ellipse_37" data-name="Ellipse 37" cx="2.106" cy="1.141" rx="2.106" ry="1.141" transform="translate(62.628)" fill="#ffb000" stroke="#3cbfd4" stroke-linejoin="round" stroke-width="4"/>
              <path id="Path_221" data-name="Path 221" d="M344.506,444.535c0,.585-1.279,1.059-2.863,1.059s-2.863-.473-2.863-1.059l.746-5.465h4.208Z" transform="translate(-237.959 -426.363)" fill="#fff" stroke="#3cbfd4" stroke-linejoin="round" stroke-width="4"/>
              <ellipse id="Ellipse_38" data-name="Ellipse 38" cx="2.106" cy="1.141" rx="2.106" ry="1.141" transform="translate(101.578 11.6)" fill="#ffb000" stroke="#3cbfd4" stroke-linejoin="round" stroke-width="4"/>
              <path id="Path_222" data-name="Path 222" d="M317.662,429.375c0,.585-1.279,1.059-2.859,1.059s-2.863-.473-2.863-1.059l.746-5.465h4.208Z" transform="translate(-221.124 -416.854)" fill="#fff" stroke="#3cbfd4" stroke-linejoin="round" stroke-width="4"/>
              <ellipse id="Ellipse_39" data-name="Ellipse 39" cx="2.106" cy="1.141" rx="2.106" ry="1.141" transform="translate(91.569 5.949)" fill="#ffb000" stroke="#3cbfd4" stroke-linejoin="round" stroke-width="4"/>
              <path id="Path_223" data-name="Path 223" d="M292.986,413.415c0,.585-1.282,1.059-2.863,1.059s-2.863-.473-2.863-1.059l.746-5.465h4.208Z" transform="translate(-205.644 -406.843)" fill="#fff" stroke="#3cbfd4" stroke-linejoin="round" stroke-width="4"/>
              <ellipse id="Ellipse_40" data-name="Ellipse 40" cx="2.106" cy="1.141" rx="2.106" ry="1.141" transform="translate(82.373)" fill="#ffb000" stroke="#3cbfd4" stroke-linejoin="round" stroke-width="4"/>
              <path id="Path_224" data-name="Path 224" d="M395.306,444.535c0,.585-1.282,1.059-2.863,1.059s-2.863-.473-2.863-1.059l.746-5.465h4.212Z" transform="translate(-269.823 -426.363)" fill="#fff" stroke="#3cbfd4" stroke-linejoin="round" stroke-width="4"/>
              <ellipse id="Ellipse_41" data-name="Ellipse 41" cx="2.106" cy="1.141" rx="2.106" ry="1.141" transform="translate(120.51 11.6)" fill="#ffb000" stroke="#3cbfd4" stroke-linejoin="round" stroke-width="4"/>
              <path id="Path_225" data-name="Path 225" d="M368.456,429.375c0,.585-1.282,1.059-2.863,1.059s-2.863-.473-2.863-1.059l.745-5.465h4.208Z" transform="translate(-252.982 -416.854)" fill="#fff" stroke="#3cbfd4" stroke-linejoin="round" stroke-width="4"/>
              <ellipse id="Ellipse_42" data-name="Ellipse 42" cx="2.106" cy="1.141" rx="2.106" ry="1.141" transform="translate(110.505 5.949)" fill="#ffb000" stroke="#3cbfd4" stroke-linejoin="round" stroke-width="4"/>
              <path id="Path_226" data-name="Path 226" d="M343.786,413.415c0,.585-1.282,1.059-2.863,1.059s-2.863-.473-2.863-1.059l.746-5.465h4.208Z" transform="translate(-237.508 -406.843)" fill="#fff" stroke="#3cbfd4" stroke-linejoin="round" stroke-width="4"/>
              <ellipse id="Ellipse_43" data-name="Ellipse 43" cx="2.106" cy="1.141" rx="2.106" ry="1.141" transform="translate(101.305)" fill="#ffb000" stroke="#3cbfd4" stroke-linejoin="round" stroke-width="4"/>
              <path id="Path_227" data-name="Path 227" d="M446.306,444.535c0,.585-1.282,1.059-2.863,1.059s-2.863-.473-2.863-1.059l.745-5.465h4.212Z" transform="translate(-301.812 -426.363)" fill="#fff" stroke="#3cbfd4" stroke-linejoin="round" stroke-width="4"/>
              <ellipse id="Ellipse_44" data-name="Ellipse 44" cx="2.106" cy="1.141" rx="2.106" ry="1.141" transform="translate(139.521 11.6)" fill="#ffb000" stroke="#3cbfd4" stroke-linejoin="round" stroke-width="4"/>
              <path id="Path_228" data-name="Path 228" d="M419.456,429.375c0,.585-1.282,1.059-2.863,1.059s-2.863-.473-2.863-1.059l.746-5.465h4.208Z" transform="translate(-284.971 -416.854)" fill="#fff" stroke="#3cbfd4" stroke-linejoin="round" stroke-width="4"/>
              <ellipse id="Ellipse_45" data-name="Ellipse 45" cx="2.106" cy="1.141" rx="2.106" ry="1.141" transform="translate(129.516 5.949)" fill="#ffb000" stroke="#3cbfd4" stroke-linejoin="round" stroke-width="4"/>
              <path id="Path_229" data-name="Path 229" d="M394.786,413.415c0,.585-1.282,1.059-2.863,1.059s-2.863-.473-2.863-1.059l.746-5.465h4.208Z" transform="translate(-269.497 -406.843)" fill="#fff" stroke="#3cbfd4" stroke-linejoin="round" stroke-width="4"/>
              <ellipse id="Ellipse_46" data-name="Ellipse 46" cx="2.106" cy="1.141" rx="2.106" ry="1.141" transform="translate(120.316)" fill="#ffb000" stroke="#3cbfd4" stroke-linejoin="round" stroke-width="4"/>
              <line id="Line_39" data-name="Line 39" x2="130.985" transform="translate(64.6 41.854)" fill="none" stroke="#aee5f2" stroke-linejoin="round" stroke-width="6"/>
              <line id="Line_40" data-name="Line 40" x2="22.019" y2="13.546" transform="translate(69.073 23.521)" fill="none" stroke="#3cbfd4" stroke-linecap="round" stroke-linejoin="round" stroke-width="4"/>
              <path id="Path_230" data-name="Path 230" d="M270.59,475.187l-4.95-5.237h3.1l4.947,5.237Z" transform="translate(-192.083 -445.732)" fill="#ffb000"/>
              <path id="Path_231" data-name="Path 231" d="M270.58,475.187h3.1v1.025h-3.1l-2-1.241-2.949-1.812V469.95Z" transform="translate(-192.077 -445.732)" fill="#dc9600"/>
              <line id="Line_41" data-name="Line 41" x2="22.023" y2="13.546" transform="translate(88.546 23.521)" fill="none" stroke="#3cbfd4" stroke-linecap="round" stroke-linejoin="round" stroke-width="4"/>
              <path id="Path_232" data-name="Path 232" d="M343.11,487.567l-4.95-5.237h3.1l4.947,5.237Z" transform="translate(-237.57 -453.497)" fill="#ffb000"/>
              <path id="Path_233" data-name="Path 233" d="M343.11,487.567h3.1v1.021h-3.1l-2-1.238-2.949-1.812v-3.21Z" transform="translate(-237.57 -453.497)" fill="#dc9600"/>
              <line id="Line_42" data-name="Line 42" x2="22.023" y2="13.546" transform="translate(107.75 23.521)" fill="none" stroke="#3cbfd4" stroke-linecap="round" stroke-linejoin="round" stroke-width="4"/>
              <path id="Path_234" data-name="Path 234" d="M394.627,487.567l-4.947-5.237h3.094l4.95,5.237Z" transform="translate(-269.886 -453.497)" fill="#ffb000"/>
              <path id="Path_235" data-name="Path 235" d="M394.62,487.567h3.1v1.021h-3.1l-2-1.238-2.949-1.812v-3.21Z" transform="translate(-269.879 -453.497)" fill="#dc9600"/>
              <line id="Line_43" data-name="Line 43" x2="22.023" y2="13.546" transform="translate(127.768 23.521)" fill="none" stroke="#3cbfd4" stroke-linecap="round" stroke-linejoin="round" stroke-width="4"/>
              <path id="Path_236" data-name="Path 236" d="M448.33,487.567l-4.95-5.237h3.1l4.947,5.237Z" transform="translate(-303.568 -453.497)" fill="#ffb000"/>
              <path id="Path_237" data-name="Path 237" d="M448.33,487.567h3.1v1.021h-3.1l-2-1.238-2.949-1.812v-3.21Z" transform="translate(-303.568 -453.497)" fill="#dc9600"/>
              <line id="Line_44" data-name="Line 44" x2="22.023" y2="13.546" transform="translate(146.779 23.521)" fill="none" stroke="#3cbfd4" stroke-linecap="round" stroke-linejoin="round" stroke-width="4"/>
              <path id="Path_238" data-name="Path 238" d="M499.33,487.567l-4.95-5.237h3.1l4.947,5.237Z" transform="translate(-335.557 -453.497)" fill="#ffb000"/>
              <path id="Path_239" data-name="Path 239" d="M499.33,487.567h3.1v1.021h-3.1l-2-1.238-2.949-1.812v-3.21Z" transform="translate(-335.557 -453.497)" fill="#dc9600"/>
            </g>
          </g>
          <g id="MAN" transform="translate(90.615)">
            <g id="RIGHT_LEG" data-name="RIGHT LEG" transform="translate(91.482 308.651)">
              <g id="SHOE" transform="translate(34.775 104.768)">
                <path id="Path_240" data-name="Path 240" d="M637.921,1129.636c0,5.558-11.906,30.567-15.768,30.567H584.94s.47-14.672,12.055-15.831c0,0,9.259-33.832,13.583-33.921a154.277,154.277,0,0,0,15.447-1.39C628.807,1111.714,637.921,1124.075,637.921,1129.636Z" transform="translate(-583.77 -1109.06)" fill="#daf3f9"/>
                <path id="Path_241" data-name="Path 241" d="M581.8,1194.107h38.394c3.862,0,15.768-28.006,15.768-33.549-3.4-2.4-15.034-4.563-19.156,3.165-5.256,9.863-10.467,25.068-12.51,27.171H581.8Z" transform="translate(-581.8 -1139.967)" fill="#aad9f3"/>
              </g>
              <path id="FOOT-3" data-name="FOOT" d="M642.12,1080.861l4.324,10.307s10.437,2.352,15.447-1.391V1078.27A102.276,102.276,0,0,1,642.12,1080.861Z" transform="translate(-584.86 -984.979)" fill="#c36f0b"/>
              <path id="LEG-3" data-name="LEG" d="M488.51,828c2.378,7.72,47.21,91.487,52.459,94.756s26.734-1.368,27.663-2.609-9.692-87.972-15.876-88.635S488.51,828,488.51,828Z" transform="translate(-488.51 -828)" fill="#2d4263"/>
            </g>
            <g id="CHAIR-2" data-name="CHAIR" transform="translate(114.029 296.913)">
              <path id="Path_242" data-name="Path 242" d="M829.67,856.409,853.9,1003.836a1.074,1.074,0,0,0,1.055.9h0a1.073,1.073,0,0,0,1.066-1.174L841.688,854.37" transform="translate(-725.045 -832.802)" fill="none" stroke="#3f4d79" stroke-miterlimit="10" stroke-width="6"/>
              <path id="Path_243" data-name="Path 243" d="M575.348,855.785l-24.229,147.662a1.07,1.07,0,0,1-1.055.9h0a1.066,1.066,0,0,1-1.062-1.174L563.345,853.75" transform="translate(-548.995 -832.413)" fill="none" stroke="#3f4d79" stroke-miterlimit="10" stroke-width="6"/>
              <path id="Path_244" data-name="Path 244" d="M681.418,805.21c0,1.335-2.237,2.609-6.262,3.728-10.437,2.949-32.9,4.984-58.9,4.984-25.646,0-47.833-1.979-58.464-4.865l-.432-.119c-4.015-1.118-6.262-2.393-6.262-3.728a1.4,1.4,0,0,1,.242-.746c2.874-4.454,30.842-7.955,64.916-7.955C652.245,796.495,681.418,800.4,681.418,805.21Z" transform="translate(-550.315 -796.51)" fill="#fff" stroke="#3cbfd4" stroke-miterlimit="10" stroke-width="6"/>
              <path id="Path_245" data-name="Path 245" d="M681.411,819.85v7.455c0,4.812-29.172,8.711-65.163,8.711-27.062,0-50.267-2.207-60.115-5.345-3.247-1.036-5.043-2.173-5.043-3.355v-7.455c0,1.334,2.237,2.609,6.262,3.728l.432.119c10.631,2.885,32.8,4.865,58.464,4.865,26,0,48.459-2.035,58.9-4.984C679.163,822.448,681.411,821.184,681.411,819.85Z" transform="translate(-550.309 -811.15)" fill="#fff" stroke="#3cbfd4" stroke-miterlimit="10" stroke-width="6"/>
            </g>
            <g id="LEFT_LEG" data-name="LEFT LEG" transform="translate(20.138 242.915)">
              <g id="SHOE-2" data-name="SHOE" transform="translate(39.804 170.535)">
                <path id="Path_246" data-name="Path 246" d="M455,1109.14c2.982,1.6,17.389,9.692,17.389,16.23s-13.874,16.152-18.69,20.748-9.408,17.471-14.65,18.127-34.946,0-34.946,0-2.587-10.3,10.4-14.415c15.525-4.924,20.744-29.56,20.744-29.56Z" transform="translate(-403.897 -1109.14)" fill="#daf3f9"/>
                <path id="Path_247" data-name="Path 247" d="M472.756,1150.68c0,6.549-13.874,16.152-18.69,20.748s-9.408,17.471-14.65,18.127-34.946,0-34.946,0" transform="translate(-404.256 -1135.195)" fill="none" stroke="#aad9f3" stroke-linecap="round" stroke-miterlimit="10" stroke-width="8"/>
              </g>
              <path id="FOOT-4" data-name="FOOT" d="M492.207,1087.15s-.257,4.473,5.3,8.2-14.519,11.433-19.756,11.123L471.66,1096.3S487.983,1090.822,492.207,1087.15Z" transform="translate(-406.597 -924.812)" fill="#c36f0b"/>
              <path id="LEG-4" data-name="LEG" d="M510.986,677.262s12.241,40.527-17.3,43.427c-36.3,3.564-124.48-2.93-124.48-2.93s17.192,60.015,18.116,93.69c0,0-14.761,12.629-32.676,12.3,0,0-77.121-106.1-52.779-140.471,21.553-30.44,120.145-31.629,120.145-31.629S426.048,676.927,510.986,677.262Z" transform="translate(-297.116 -651.65)" fill="#3f4d79"/>
            </g>
            <path id="T-SHIRT" d="M688.538,321.484c-7.78,30.481-15.563,53.368-9.561,80.64,0,0-24.684,13.915-74.765-.332-21.993-6.262-38.394-24.3-38.394-24.3s17.471-15.857,16.152-29c-1.144-11.429-6.124-31.916-9.039-50.323-10.307-5.491-22.955-13.893-31.759-25.348,0,0,1.074-7.634,19.674-31.006,14.56-18.291,45.477-19.533,57.592-20.562a190.087,190.087,0,0,1,40.281-4.186c7.739.138,13.524,4.026,18.34,10.065C690.864,244.535,700.466,274.755,688.538,321.484Z" transform="translate(-430.058 -136.131)" fill="#ffb000"/>
            <g id="HAND-2" data-name="HAND" transform="translate(0 136.29)">
              <path id="Path_248" data-name="Path 248" d="M405.342,406.2c-12.085,15.041-27.73,30.227-40.258,29.683-39.6-1.726-71.082-15.19-82.626-21.855-4.216-.216-17.96-3.195-20.174-3.631-2.352-.462-15.526-3.813-15.138-5.774a51.457,51.457,0,0,1,4.2-10.065c1.085-1.625,9.93-7.127,16.148-7.571,5.163-.373,13.606,6.8,16.323,9.245h0c9.427-.611,68.666-5.987,68.666-5.987s2.744-5.174,7.5-13.047C375.931,394.984,400.422,404.434,405.342,406.2Z" transform="translate(-245.63 -372.88)" fill="#c36f0b"/>
              <g id="ARM" transform="translate(0 14.09)">
                <path id="Path_249" data-name="Path 249" d="M259.746,426.831c-2.352-.462-14.97-3.627-15.969-5.36-1.983-3.433.8-7.988,2.538-9.241,1.6-1.152,12.424-8.376,18.638-8.82,0,0-9.692,10.791-5.219,23.421" transform="translate(-243.092 -403.41)" fill="#b65a18"/>
              </g>
              <path id="Path_250" data-name="Path 250" d="M593.184,406.176c-2.2,2.729-4.51,5.472-6.9,8.119-5.864-2.58-26.447-12.86-39.68-35.107.373-.652.8-1.331,1.223-2.028C563.773,394.963,588.271,404.409,593.184,406.176Z" transform="translate(-433.464 -372.855)" fill="#b65a18"/>
              <path id="Path_251" data-name="Path 251" d="M541.12,365.61c17.319,22.537,49.5,33.25,49.5,33.25l8.175-10.6" transform="translate(-430.027 -365.61)" fill="none" stroke="#fff" stroke-linecap="round" stroke-miterlimit="10" stroke-width="6"/>
            </g>
            <g id="HEAD-3" data-name="HEAD" transform="translate(162.353)">
              <g id="NECK-2" data-name="NECK" transform="translate(16.501 45.232)">
                <path id="Path_252" data-name="Path 252" d="M782.02,159.3c-18.105-9.554-19.734-37.966-19.734-37.966L722.9,136.93,733.2,160.9s6.676,4.768,28.479,4.406S782.02,159.3,782.02,159.3Z" transform="translate(-722.9 -121.33)" fill="#c36f0b"/>
                <path id="Path_253" data-name="Path 253" d="M746.835,137.75c-1.935,4.928-4.186,5.073-4.186,5.073s-.9,18.4-12.256,21.486a.78.78,0,0,1-.127.03l-7.366-17.11Z" transform="translate(-722.9 -131.629)" fill="#b65a18"/>
                <path id="Path_254" data-name="Path 254" d="M749.49,227.887s7.06,4.4,28.867,4.4c20.36,0,19.954-6.009,19.954-6.009" transform="translate(-739.578 -187.159)" fill="none" stroke="#fff" stroke-linecap="round" stroke-miterlimit="10" stroke-width="6"/>
              </g>
              <path id="HEAD-4" data-name="HEAD" d="M720.632,74.51S713.7,85.32,706.758,87.848c-7.649,2.8-20.6,2.024-23.972-7.429-2.822-7.888,7.988-18.955,10.449-41.22,1.923-17.352,30.388,3.321,28.893,19.313Z" transform="translate(-680.945 -20.455)" fill="#c36f0b"/>
              <g id="HAIR-2" data-name="HAIR" transform="translate(0 3.649)">
                <path id="Path_255" data-name="Path 255" d="M699.937,11.507s-8.465-2.128-12.476,3.2c-3.728,4.961-3.06,18.332,14.769,20.875,10.926,1.554,3.929,14.377,7.012,15.79s7.623-10.892,10.523-1.144c2.158,7.25,2.14,12.01,10.605,14.65s10.613-1.614,10.613-1.614-2.826-9.319,5.632-25.132c4.149-7.768-1.748-19.879-11.5-21.113s-10.437-6.494-17.427-7.191c-8.831-.88-13.684,10.2-18.183,9.107S697.432,13.714,699.937,11.507Z" transform="translate(-683.026 -9.776)" fill="#3f4d79"/>
                <path id="Path_256" data-name="Path 256" d="M680.164,26.94c-3.728,4.961-1.827,17.24,19.123,19.048" transform="translate(-678.632 -20.542)" fill="none" stroke="#3f4d79" stroke-miterlimit="10" stroke-width="3"/>
              </g>
              <g id="CAP" transform="translate(15.282)">
                <path id="Path_257" data-name="Path 257" d="M719.63,12.166s12.711,36.587,49.544,29.869c0,0,7.828-20.707.283-29.254-8.454-9.6-24.039-15.5-35.3-11.556S719.63,12.166,719.63,12.166Z" transform="translate(-719.63 0.013)" fill="#daf3f9"/>
                <path id="Path_258" data-name="Path 258" d="M811.62,65.13s9.539-26.7-5.882-28.867c-6.028-.85-16.931,6.005-17.818,26.123" transform="translate(-762.464 -22.697)" fill="none" stroke="#3cbfd4" stroke-miterlimit="10" stroke-width="3"/>
                <path id="Path_259" data-name="Path 259" d="M786.89,106.46s13.222,18.985,35.412,20.077-10.933-17.717-10.933-17.717S802.3,110.318,786.89,106.46Z" transform="translate(-761.818 -66.771)" fill="#3cbfd4"/>
              </g>
            </g>
          </g>
        </g>
      </g>
    </g>
    <g id="Layer_2-3" data-name="Layer 2" transform="translate(781.64 546.467)">
      <g id="Слой_1-3" data-name="Слой 1" transform="translate(0 0)">
        <g id="_1" data-name="1" transform="translate(0 0)">
          <g id="CHAIR-3" data-name="CHAIR" transform="translate(69.235 309.697)">
            <rect id="Rectangle_24" data-name="Rectangle 24" width="140.141" height="30.033" rx="15.017" fill="#fff" stroke="#d8baa3" stroke-miterlimit="10" stroke-width="6"/>
            <path id="Path_260" data-name="Path 260" d="M194.906,1057.958h0a.917.917,0,0,0,.929-1.027l-22.6-160.581H99.6L194.087,1057.5A.944.944,0,0,0,194.906,1057.958Z" transform="translate(-63.827 -866.317)" fill="none" stroke="#d8baa3" stroke-miterlimit="10" stroke-width="6"/>
            <path id="Path_261" data-name="Path 261" d="M161.17,1057.958h0a.91.91,0,0,1-.921-1.038l26.36-160.57h73.635l-98.271,161.165a.944.944,0,0,1-.8.443Z" transform="translate(-151.214 -866.317)" fill="none" stroke="#d8baa3" stroke-miterlimit="10" stroke-width="6"/>
          </g>
          <g id="WOMAN-2" data-name="WOMAN">
            <g id="LEGS-2" data-name="LEGS" transform="translate(12.751 225.867)">
              <g id="RIGHT_FOOT" data-name="RIGHT FOOT" transform="translate(3.883 215.042)">
                <path id="Path_262" data-name="Path 262" d="M512.04,1163.3a113,113,0,0,1-23.245.58c2.532,9.771,3.7,19.114,5.537,27.414,1.19,5.344-6.064,12.579-8.263,17.814a1.752,1.752,0,0,1,.171-.08c10.059-1.6,23.529,7.91,22.142-6.94C507.052,1187.224,510.4,1176.319,512.04,1163.3Z" transform="translate(-473.902 -1163.3)" fill="#b65a18"/>
                <path id="SHOE-3" data-name="SHOE" d="M506.137,1236.8c3.46,0,9.832,6.25,9.274,16.256a78.451,78.451,0,0,1-2.911,17.435H472.135c-1.9-14.3,12.163-15.843,12.163-15.843,10.063-1.6,23.025,7.91,21.638-6.936Z" transform="translate(-471.96 -1208.943)" fill="#642648"/>
              </g>
              <g id="LEFT_FOOT" data-name="LEFT FOOT" transform="translate(27.761 215.421)">
                <path id="Path_263" data-name="Path 263" d="M442.209,1164.3a148.423,148.423,0,0,1-25.9.2c2.532,9.771,4.021,27.414,4.021,27.414,1.19,5.344-6.064,12.579-8.263,17.814a1.756,1.756,0,0,1,.171-.08c10.059-1.6,23.529,7.91,22.142-6.94C433.052,1187.844,442.209,1164.3,442.209,1164.3Z" transform="translate(-399.902 -1164.3)" fill="#c36f0b"/>
                <path id="SHOE-4" data-name="SHOE" d="M443.884,1236.8c3.46,0,9.074,6.25,8.516,16.256a78.456,78.456,0,0,1-2.911,17.435H409.124c-1.9-14.3,12.163-15.843,12.163-15.843,10.063-1.6,23.025,7.91,21.638-6.936Z" transform="translate(-408.948 -1209.322)" fill="#722d54"/>
              </g>
              <g id="LEGS-3" data-name="LEGS">
                <path id="Path_264" data-name="Path 264" d="M263.915,595.93s34.684,41.976,32.216,69.97-31.219,36.272-84.141,35.654c0,0-1.55,41.991-29.033,109.914a91.288,91.288,0,0,1-28.426,0s-13.266,1.338-23.12-.064c0,0-21.013-137.336-18.458-151.265,3.385-18.458,70.269-35.108,87.583-39.107l14.475-25.1S244.074,599.622,263.915,595.93Z" transform="translate(-112.738 -595.93)" fill="#3f4d90"/>
                <path id="Path_265" data-name="Path 265" d="M370,705s-55.473,14.554-62.246,32.394-7.118,143.321-7.118,143.321" transform="translate(-257.702 -663.661)" fill="none" stroke="#fff" stroke-miterlimit="10" stroke-width="4"/>
              </g>
            </g>
            <g id="BLOUSE-3" data-name="BLOUSE" transform="translate(89.902 105.571)">
              <path id="Path_266" data-name="Path 266" d="M90.7,346.308s2.153,29.991,18.155,52.6c0,0,26.152,4.461,48.893,0,0,0,22.532-23.7,28.991-49.378,0,0,21.456-43.518,11.749-50.9s-33.857-20.088-33.857-20.088L115.5,280.951c-6.064,3.684-18.992,9.707-31.913,16.472Z" transform="translate(-83.589 -278.54)" fill="#f0e1d4"/>
              <ellipse id="Ellipse_47" data-name="Ellipse 47" cx="3.544" cy="3.544" rx="3.544" ry="3.544" transform="translate(43.371 50.724)" fill="#f0e1d4" stroke="#fff" stroke-linejoin="round" stroke-width="5"/>
              <ellipse id="Ellipse_48" data-name="Ellipse 48" cx="3.544" cy="3.544" rx="3.544" ry="3.544" transform="translate(43.371 65.065)" fill="#f0e1d4" stroke="#fff" stroke-linejoin="round" stroke-width="5"/>
              <ellipse id="Ellipse_49" data-name="Ellipse 49" cx="3.544" cy="3.544" rx="3.544" ry="3.544" transform="translate(43.371 79.404)" fill="#f0e1d4" stroke="#fff" stroke-linejoin="round" stroke-width="5"/>
            </g>
            <g id="RIGHT_HAND" data-name="RIGHT HAND" transform="translate(0 124.45)">
              <path id="Path_267" data-name="Path 267" d="M413.526,328.35c-12.917,6.769-50.924,93.882-35.108,103.092,32.845,19.152,42.184-54.2,42.184-54.2Z" transform="translate(-323.594 -328.35)" fill="#f0e1d4"/>
              <path id="Path_268" data-name="Path 268" d="M464.175,562.59c-4.434,1.9-15.877-1.6-28.593-9.926s1.709-13.83,1.709-13.83,16.9-6.784,27.217-1.9S472.668,558.932,464.175,562.59Z" transform="translate(-395.531 -456.78)" fill="#b65a18"/>
              <path id="Path_269" data-name="Path 269" d="M246.4,495.39h69.428l76.182,49.867H322.586Z" transform="translate(-246.4 -432.079)" fill="#fff" stroke="#3f4d79" stroke-linejoin="round" stroke-width="5"/>
              <path id="Path_270" data-name="Path 270" d="M516,534.358c0-1.812,11.514-12.47,15.919-8.444,1.846,1.683,1.952,16.135,1.781,18.742C533.16,552.956,516.093,543.651,516,534.358Z" transform="translate(-490.328 -450.474)" fill="#c36f0b"/>
            </g>
            <g id="LEFT_HAND" data-name="LEFT HAND" transform="translate(122.615 123.566)">
              <path id="Path_271" data-name="Path 271" d="M53.643,328.111c3.946,3.131,45.834,66.9,31.011,96.27C67.932,457.53,0,430.006,0,430.006s8.619-2.653,3.081-13.728c0,0,28.108-14.956,50.716-10.495,0,0-17.533-29.07-19.379-40.452S39.491,316.885,53.643,328.111Z" transform="translate(28.569 -326.019)" fill="#f0e1d4"/>
              <line id="Line_45" data-name="Line 45" x1="12.379" y2="27.649" transform="translate(1.505 70.853)" fill="none" stroke="#722d54" stroke-miterlimit="10" stroke-width="6"/>
              <g id="ARM-2" data-name="ARM" transform="translate(0 84.334)">
                <path id="Path_272" data-name="Path 272" d="M247.216,553.565s-12.458-7.1-17.435-4.442c-5.454,2.911-12,12.128-12.595,13.679a11.258,11.258,0,0,0-.334,4.821c.095,1.66,11.37,1.565,13.538,1.44s13.8,1.255,15.835-.735C253.682,561.028,247.216,553.565,247.216,553.565Z" transform="translate(-215.587 -548.526)" fill="#c36f0b"/>
                <path id="Path_273" data-name="Path 273" d="M282.808,570.059c-2.183.125-12.151.25-13.421-.932-2.52-2.339-1.076-5.833.186-7.2,1.156-1.258,7.307-8.9,12.625-11.795,0,0-6.167,10.73.61,19.94" transform="translate(-268 -549.522)" fill="#b65a18"/>
              </g>
            </g>
            <g id="HEAD-5" data-name="HEAD" transform="translate(58.822)">
              <g id="HAIR-3" data-name="HAIR">
                <path id="Path_274" data-name="Path 274" d="M171.976,25.685s5.537-8.922,0-13.535S164.16.049,154.135,0c-10.355-.049-14.486,8.024-19.227,7.228-6.443-1.08-10.961-3.157-19.144,1.16-6.549,3.457-6.822,16.415-13.463,15.759-5.283-.519-11.151-.186-14.149,5.685-2.274,4.446.152,16.457-3.229,19.686s-11.37,4.283-12,12.61C72.09,73.381,83.839,75.037,80.769,83.97c-4.04,11.749,1.66,19.125,11.689,20.467,7.053.936,19.447-9.551,23.992-2.308,3.877,6.174,12,8.922,21.983,4.927s16.15-2.771,22.3-.155,13.69,6.3,18.765,1.842,11.2-4.586,17.958-1.793c9.377,3.877,19.44-2.5,18.193-10.969-1.035-7,8.573-7.884,9.688-15.843,1.455-10.4-13.842-13.072-9.381-17.533s4.3-17.5-8.914-19.231c-12.538-1.63-9.854-9.441-13.391-14.782A14.912,14.912,0,0,0,171.976,25.685Z" transform="translate(-72.881 0.001)" fill="#722d54"/>
                <path id="Path_275" data-name="Path 275" d="M127.373,94.048c4.169-4.723,2.839-19.254-10.457-20.16-12.614-.857-10.408-8.82-14.27-13.917-3.252-4.287-14.152-9.4-24.469-.451" transform="translate(21.073 -33.891)" fill="none" stroke="#722d54" stroke-miterlimit="10" stroke-width="3"/>
              </g>
              <g id="NECK-3" data-name="NECK" transform="translate(63.023 64.012)">
                <path id="Path_276" data-name="Path 276" d="M213.772,168.905c.095,7.959-.4,29.908,14.842,41.54,0,0-27.372,13.747-33.55,44.2,0,0-4.347-32.1-15.574-41.79,0,0,13.3-7.542,10.381-43.966Z" transform="translate(-179.49 -168.89)" fill="#c36f0b"/>
                <path id="Path_277" data-name="Path 277" d="M218.56,200.472a9.421,9.421,0,0,0,6.352,2.691c9.6,0,19.167-14.63,20.088-30.272-.03-1.539-.03-2.881-.045-3.961h-23.9C222.255,183.738,220.758,193.778,218.56,200.472Z" transform="translate(-210.684 -168.915)" fill="#b65a18"/>
              </g>
              <path id="HEAD-6" data-name="HEAD" d="M253.329,110.333c-.106-4-1.516-24.916-18.454-24.147s-19.686,17.84-18.17,31.53,9.854,22.915,15.687,22.3S253.791,127.252,253.329,110.333Z" transform="translate(-155.159 -53.507)" fill="#c36f0b"/>
            </g>
          </g>
        </g>
      </g>
    </g>
  </g>
</svg>
